# xmcd CD database file
#
# Track frame offsets:
#	150
#	14905
#	25405
#	40335
#	63207
#	81297
#	93370
#	109690
#	121730
#	135675
#	150562
#	167497
#
# Disc length: 2422 seconds
#
# Revision: 8
# Processed by: cddbd v1.5.2PL0 Copyright (c) Steve Scherf et al.
# Submitted via: CDex 1.72
#
DISCID=9409740c
DTITLE=Ball.Marcia, Angela Strehli, and Lou Ann Barton (USA-90-Dreams Come True-bls) - Dreams Come True
DYEAR=1990
DGENRE=Blues
TTITLE0=A Fool In Love
TTITLE1=Good Rockin' Daddy
TTITLE2=It Hurts To Be In Love
TTITLE3=Love, Sweet Love
TTITLE4=Gonna Make It
TTITLE5=You Can If You Think You Can
TTITLE6=I Idolize You
TTITLE7=Dreams Come True
TTITLE8=Bad Thing
TTITLE9=Turn the Lock On Love
TTITLE10=Something's Got a Hold On Me
TTITLE11=Snake Dance
EXTD=LABEL =Antone's Records and Tapes\nID =ANT0014\nUPC =04989-10014-20\nCOPYRIGHT =1990\n---\nANtone's ANT0014\nProduced by Mac "Dr. John" Rebennak YEAR: 1990
EXTT0=
EXTT1=
EXTT2=
EXTT3=
EXTT4=
EXTT5=
EXTT6=
EXTT7=
EXTT8=
EXTT9=
EXTT10=
EXTT11=
PLAYORDER=
